<svg width="145" height="145" viewBox="0 0 145 145" fill="none" xmlns="http://www.w3.org/2000/svg">
<circle cx="72.8327" cy="72.7682" r="66.9723" stroke="#878383" stroke-width="10"/>
<mask id="path-2-inside-1_0_1" fill="white">
<path d="M8.02696 104.077C2.72458 93.1015 0.296506 80.9593 0.970447 68.7888C1.64439 56.6184 5.39826 44.8185 11.88 34.4956C18.3618 24.1728 27.3591 15.6653 38.0282 9.77086C48.6974 3.87645 60.6887 0.788264 72.8778 0.795913L72.8716 10.6482C62.3511 10.6416 52.0012 13.307 42.7926 18.3945C33.584 23.4821 25.8183 30.825 20.2238 39.7347C14.6293 48.6445 11.3893 58.8291 10.8076 69.3336C10.2259 79.838 12.3216 90.3181 16.8982 99.7911L8.02696 104.077Z"/>
</mask>
<path d="M8.02696 104.077C2.72458 93.1015 0.296506 80.9593 0.970447 68.7888C1.64439 56.6184 5.39826 44.8185 11.88 34.4956C18.3618 24.1728 27.3591 15.6653 38.0282 9.77086C48.6974 3.87645 60.6887 0.788264 72.8778 0.795913L72.8716 10.6482C62.3511 10.6416 52.0012 13.307 42.7926 18.3945C33.584 23.4821 25.8183 30.825 20.2238 39.7347C14.6293 48.6445 11.3893 58.8291 10.8076 69.3336C10.2259 79.838 12.3216 90.3181 16.8982 99.7911L8.02696 104.077Z" stroke="#05D976" stroke-width="20" mask="url(#path-2-inside-1_0_1)"/>
</svg>
