<svg width="150" height="72" viewBox="0 0 150 72" fill="none" xmlns="http://www.w3.org/2000/svg">
<rect x="0.439453" y="63.1506" width="149.061" height="8" rx="4" fill="#D9D9D9"/>
<rect x="2.10352" y="63.1506" width="146.083" height="6.76733" rx="3.38367" fill="#D9D9D9"/>
<path d="M71.7334 8.66352C71.7334 4.21008 75.3436 0.599854 79.7971 0.599854H92.41C96.8635 0.599854 100.474 4.21008 100.474 8.66352H71.7334Z" fill="#05D976"/>
<rect x="36.4189" y="21.0642" width="28.7403" height="9.9923" rx="4.99615" fill="#D9D9D9"/>
<rect x="37.4844" y="63.1506" width="28.7403" height="13.5211" rx="6.76056" transform="rotate(-90 37.4844 63.1506)" fill="#555555"/>
<rect x="110.181" y="63.1506" width="28.7403" height="13.5211" rx="6.76056" transform="rotate(-90 110.181 63.1506)" fill="#555555"/>
<rect x="44.2451" y="8.66333" width="91.1765" height="31.5078" rx="15.7539" fill="white"/>
<rect x="50.2529" y="12.7144" width="50.2209" height="16.6996" rx="8.3498" fill="#555555"/>
<rect x="105.28" y="12.7153" width="24.7206" height="16.6996" rx="8.3498" fill="#555555"/>
<rect x="21.8066" y="24.4177" width="127.693" height="31.5078" rx="15" fill="white"/>
<rect x="55.4922" y="13.8401" width="12.7713" height="5.08935" rx="2.54468" fill="#878383"/>
<circle cx="29.8203" cy="35.4863" r="5.91697" fill="#555555"/>
<circle cx="70.6845" cy="35.3308" r="5.91697" fill="#555555"/>
<rect x="31.1885" y="43.3818" width="33.9709" height="10.5616" rx="5.2808" fill="#05D976"/>
<rect x="83.5947" y="63.1506" width="18.4143" height="13.5211" rx="6.76056" transform="rotate(-90 83.5947 63.1506)" fill="#555555"/>
<rect x="126.677" y="63.1506" width="18.4143" height="13.5211" rx="6.76056" transform="rotate(-90 126.677 63.1506)" fill="#555555"/>
<rect x="88.6982" y="21.7043" width="17.868" height="9.9923" rx="4.99615" fill="#D9D9D9"/>
</svg>
