<svg width="33" height="33" viewBox="0 0 33 33" fill="none" xmlns="http://www.w3.org/2000/svg">
<circle cx="16.457" cy="16.4521" r="15.5" stroke="#4F624A"/>
<path d="M17.1628 18.4528C16.7723 18.0623 16.1391 18.0623 15.7486 18.4528L13.2228 20.9786C12.8657 21.3357 12.2868 21.3357 11.9298 20.9786C11.5727 20.6216 11.5727 20.0427 11.9298 19.6856L14.4556 17.1598C14.8461 16.7693 14.8461 16.1361 14.4556 15.7456L11.9303 13.2203C11.5732 12.8632 11.5732 12.2842 11.9303 11.9271C12.2874 11.57 12.8663 11.57 13.2234 11.9271L15.7487 14.4524C16.1393 14.843 16.7724 14.843 17.1629 14.4524L19.6888 11.9266C20.0458 11.5696 20.6247 11.5696 20.9818 11.9266C21.3388 12.2837 21.3388 12.8626 20.9818 13.2196L18.4559 15.7454C18.0654 16.136 18.0654 16.7691 18.4559 17.1597L20.9813 19.685C21.3383 20.0421 21.3383 20.621 20.9812 20.9781C20.6242 21.3352 20.0452 21.3352 19.6881 20.9781L17.1628 18.4528Z" fill="#4F624A"/>
</svg>
