<svg width="51" height="50" viewBox="0 0 51 50" fill="none" xmlns="http://www.w3.org/2000/svg">
<circle cx="25.0566" cy="25" r="25" fill="#141913"/>
<path d="M20.6299 17.3068C20.6299 15.7777 21.8695 14.5381 23.3986 14.5381H26.713C28.2421 14.5381 29.4817 15.7777 29.4817 17.3068H20.6299Z" fill="#05D976"/>
<rect x="31.3936" y="22.1621" width="8.85182" height="3.43091" rx="1.71546" fill="#D9D9D9"/>
<rect x="9.86523" y="22.1621" width="8.85182" height="3.43091" rx="1.71546" fill="#D9D9D9"/>
<rect x="14.292" y="35.4619" width="9.86814" height="4.16442" rx="2.08221" transform="rotate(-90 14.292 35.4619)" fill="#555555"/>
<rect x="31.6553" y="35.4619" width="9.86814" height="4.16442" rx="2.08221" transform="rotate(-90 31.6553 35.4619)" fill="#555555"/>
<rect x="14.292" y="16.7529" width="21.5271" height="10.8184" rx="5.4092" fill="white"/>
<rect x="16.6963" y="18.4707" width="16.7164" height="5.7339" rx="2.86695" fill="#555555"/>
<path d="M11.4033 24.8406C11.4033 23.3613 12.479 22.1621 13.806 22.1621H36.3067C37.6336 22.1621 38.7093 23.3613 38.7093 24.8406V30.302C38.7093 31.7813 37.6336 32.9805 36.3067 32.9805H13.806C12.479 32.9805 11.4033 31.7813 11.4033 30.302V24.8406Z" fill="white"/>
<ellipse cx="17.0529" cy="25.9096" rx="1.82239" ry="2.03162" fill="#555555"/>
<ellipse cx="33.0568" cy="25.9096" rx="1.82239" ry="2.03162" fill="#555555"/>
<rect x="19.8242" y="27.5713" width="10.4628" height="3.62638" rx="1.81319" fill="#05D976"/>
<rect x="18.3135" y="18.8613" width="3.93348" height="1.74746" rx="0.873729" fill="#878383"/>
</svg>
