<svg width="31" height="31" viewBox="0 0 31 31" fill="none" xmlns="http://www.w3.org/2000/svg">
<circle cx="15.23" cy="15.5776" r="15" fill="black"/>
<path fill-rule="evenodd" clip-rule="evenodd" d="M13.4694 23.1425H16.9875C19.4582 23.1425 20.694 23.1425 21.5814 22.5247C21.9645 22.2584 22.2943 21.9145 22.552 21.5127C23.1449 20.5881 23.1449 19.2996 23.1449 16.7243C23.1449 14.149 23.1449 12.8605 22.552 11.9359C22.2943 11.5341 21.9645 11.1902 21.5814 10.9239C21.0115 10.5264 20.2974 10.3843 19.2041 10.3339C18.6824 10.3339 18.2336 9.92203 18.1314 9.3883C18.0534 8.99735 17.8506 8.647 17.5574 8.39646C17.2641 8.14591 16.8984 8.01054 16.522 8.01322H13.9349C13.1528 8.01322 12.4791 8.58897 12.3255 9.3883C12.2234 9.92203 11.7745 10.3339 11.2528 10.3339C10.1604 10.3843 9.44629 10.5272 8.87551 10.9239C8.49278 11.1903 8.16325 11.5342 7.90575 11.9359C7.31201 12.8605 7.31201 14.1481 7.31201 16.7243C7.31201 19.3005 7.31201 20.5873 7.90496 21.5127C8.16145 21.9128 8.49077 22.2566 8.87551 22.5247C9.76295 23.1425 10.9987 23.1425 13.4694 23.1425ZM15.2285 13.2858C13.4069 13.2858 11.9297 14.8247 11.9297 16.7235C11.9297 18.6222 13.4077 20.1637 15.2285 20.1637C17.0493 20.1637 18.5273 18.6239 18.5273 16.7251C18.5273 14.8264 17.0493 13.2858 15.2285 13.2858ZM15.2285 14.6608C14.136 14.6608 13.2494 15.5846 13.2494 16.7243C13.2494 17.8632 14.136 18.7869 15.2285 18.7869C16.321 18.7869 17.2076 17.8632 17.2076 16.7243C17.2076 15.5854 16.321 14.6608 15.2285 14.6608ZM18.9666 13.9733C18.9666 13.5934 19.2619 13.2858 19.6269 13.2858H20.5056C20.8698 13.2858 21.1658 13.5934 21.1658 13.9733C21.1642 14.1573 21.0938 14.333 20.9701 14.462C20.8465 14.5909 20.6797 14.6624 20.5064 14.6608H19.6269C19.541 14.6617 19.4558 14.6447 19.3761 14.6106C19.2965 14.5765 19.2239 14.5261 19.1626 14.4623C19.1013 14.3984 19.0525 14.3224 19.0188 14.2385C18.9852 14.1546 18.9675 14.0645 18.9666 13.9733Z" fill="white"/>
</svg>
