<svg width="51" height="50" viewBox="0 0 51 50" fill="none" xmlns="http://www.w3.org/2000/svg">
<circle cx="25.0566" cy="25" r="25" fill="#141913"/>
<path d="M25.762 27.7287C25.3715 27.3382 24.7383 27.3382 24.3478 27.7287L19.7004 32.3761C19.3099 32.7666 18.6767 32.7666 18.2862 32.3761L17.6801 31.77C17.2896 31.3794 17.2896 30.7463 17.6801 30.3558L22.3275 25.7084C22.718 25.3179 22.718 24.6847 22.3275 24.2942L17.6808 19.6475C17.2903 19.2569 17.2903 18.6238 17.6808 18.2333L18.2871 17.6269C18.6776 17.2364 19.3108 17.2364 19.7013 17.6269L24.348 22.2736C24.7386 22.6642 25.3717 22.6642 25.7622 22.2736L30.4096 17.6263C30.8001 17.2357 31.4333 17.2357 31.8238 17.6263L32.4299 18.2324C32.8205 18.6229 32.8205 19.256 32.4299 19.6466L27.7826 24.2939C27.392 24.6845 27.392 25.3176 27.7826 25.7082L32.4293 30.3549C32.8198 30.7454 32.8198 31.3786 32.4293 31.7691L31.8229 32.3754C31.4324 32.7659 30.7993 32.7659 30.4087 32.3754L25.762 27.7287Z" fill="#05D976"/>
</svg>
