<svg width="51" height="50" viewBox="0 0 51 50" fill="none" xmlns="http://www.w3.org/2000/svg">
<circle cx="25.0566" cy="25" r="25" fill="#141913"/>
<path d="M25.0566 15.5938C23.0788 15.5937 21.1454 16.1802 19.5009 17.2791C17.8565 18.3779 16.5747 19.9397 15.8178 21.7669C15.061 23.5942 14.8629 25.6048 15.2488 27.5447C15.6346 29.4845 16.5871 31.2663 17.9856 32.6648C19.3841 34.0633 21.1659 35.0157 23.1057 35.4016C25.0456 35.7875 27.0562 35.5894 28.8835 34.8325C30.7107 34.0757 32.2725 32.7939 33.3713 31.1494C34.4702 29.505 35.0566 27.5716 35.0566 25.5937C35.0566 22.9416 34.0031 20.398 32.1277 18.5227C30.2523 16.6473 27.7088 15.5938 25.0566 15.5938ZM29.3424 28.4509C29.3424 28.8298 29.1918 29.1931 28.9239 29.461C28.656 29.729 28.2927 29.8795 27.9138 29.8795H22.1995C21.8206 29.8795 21.4573 29.729 21.1893 29.461C20.9214 29.1931 20.7709 28.8298 20.7709 28.4509V22.7366C20.7709 22.3577 20.9214 21.9944 21.1893 21.7265C21.4573 21.4585 21.8206 21.308 22.1995 21.308H27.9138C28.2927 21.308 28.656 21.4585 28.9239 21.7265C29.1918 21.9944 29.3424 22.3577 29.3424 22.7366V28.4509Z" fill="#05D976"/>
</svg>
