<svg width="361" height="411" viewBox="0 0 361 411" fill="none" xmlns="http://www.w3.org/2000/svg">
<path opacity="0.75" d="M144 99.3143H218L361 462.314H0.5L144 99.3143Z" fill="#08F283"/>
<path d="M160.62 67.9294C160.62 61.6911 165.677 56.6339 171.916 56.6339H189.584C195.822 56.6339 200.879 61.6911 200.879 67.9294H160.62Z" fill="#05D976"/>
<rect x="209.573" y="87.7382" width="40.259" height="13.9971" rx="6.99853" fill="#D9D9D9"/>
<rect x="111.667" y="87.7382" width="40.259" height="13.9971" rx="6.99853" fill="#D9D9D9"/>
<rect x="131.8" y="141.995" width="40.259" height="18.9402" rx="9.47009" transform="rotate(-90 131.8 141.995)" fill="#555555"/>
<rect x="210.769" y="141.995" width="40.259" height="18.9402" rx="9.47009" transform="rotate(-90 210.769 141.995)" fill="#555555"/>
<rect x="131.8" y="65.6713" width="97.9073" height="44.1357" rx="22.0679" fill="white"/>
<rect x="142.741" y="72.6776" width="76.0276" height="23.3925" rx="11.6963" fill="#555555"/>
<rect x="118.651" y="87.7382" width="124.19" height="44.1357" rx="14" fill="white"/>
<rect x="156.956" y="109.807" width="47.5859" height="14.7945" rx="7.39726" fill="#05D976"/>
<rect x="150.085" y="74.2697" width="17.8899" height="7.12909" rx="3.56455" fill="#878383"/>
<path d="M214.188 99.1474C212.873 97.8329 212.779 95.7957 213.978 94.5971C215.176 93.3986 217.214 93.4927 218.528 94.8072L228.05 104.33C229.365 105.644 229.459 107.681 228.26 108.88C227.062 110.078 225.025 109.984 223.71 108.67L214.188 99.1474Z" fill="#555555"/>
<path d="M218.533 108.669C217.218 109.984 215.181 110.078 213.982 108.879C212.784 107.681 212.878 105.643 214.192 104.329L223.715 94.8066C225.029 93.4921 227.066 93.3981 228.265 94.5966C229.463 95.7951 229.369 97.8324 228.055 99.1469L218.533 108.669Z" fill="#555555"/>
<path d="M133.457 99.1462C132.143 97.8317 132.049 95.7945 133.247 94.5959C134.446 93.3974 136.483 93.4914 137.798 94.806L147.32 104.328C148.634 105.643 148.728 107.68 147.53 108.879C146.331 110.077 144.294 109.983 142.98 108.669L133.457 99.1462Z" fill="#555555"/>
<path d="M137.802 108.668C136.488 109.983 134.45 110.077 133.252 108.878C132.053 107.68 132.147 105.642 133.462 104.328L142.984 94.8054C144.299 93.4909 146.336 93.3968 147.534 94.5954C148.733 95.7939 148.639 97.8311 147.324 99.1457L137.802 108.668Z" fill="#555555"/>
<path d="M180.756 18.0961C179.553 18.0961 178.399 17.6196 177.549 16.7716C176.698 15.9236 176.22 14.7734 176.22 13.574C176.22 12.3747 176.698 11.2245 177.549 10.3765C178.399 9.52843 179.553 9.05201 180.756 9.05201C181.959 9.05201 183.113 9.52843 183.963 10.3765C184.814 11.2245 185.292 12.3747 185.292 13.574C185.292 14.1679 185.175 14.7559 184.947 15.3045C184.719 15.8532 184.385 16.3517 183.963 16.7716C183.542 17.1915 183.042 17.5246 182.492 17.7518C181.941 17.9791 181.352 18.0961 180.756 18.0961ZM180.756 0.912354C177.388 0.912354 174.157 2.24635 171.776 4.62087C169.394 6.9954 168.056 10.216 168.056 13.574C168.056 23.0703 180.756 37.0886 180.756 37.0886C180.756 37.0886 193.456 23.0703 193.456 13.574C193.456 10.216 192.118 6.9954 189.737 4.62087C187.355 2.24635 184.124 0.912354 180.756 0.912354Z" fill="#08F283"/>
</svg>
