<svg width="31" height="22" viewBox="0 0 31 22" fill="none" xmlns="http://www.w3.org/2000/svg">
<path d="M9.59235 10.6401C12.5221 10.6401 14.8934 8.26888 14.8934 5.33911C14.8934 2.40935 12.5221 0.0380859 9.59235 0.0380859C6.66259 0.0380859 4.29133 2.40935 4.29133 5.33911C4.29133 8.26888 6.66259 10.6401 9.59235 10.6401ZM13.2273 12.1547H12.8345C11.85 12.628 10.7567 12.912 9.59235 12.912C8.42802 12.912 7.33942 12.628 6.35021 12.1547H5.95737C2.94714 12.1547 0.504883 14.597 0.504883 17.6072V18.9703C0.504883 20.2246 1.52249 21.2422 2.77675 21.2422H16.408C17.6622 21.2422 18.6798 20.2246 18.6798 18.9703V17.6072C18.6798 14.597 16.2376 12.1547 13.2273 12.1547ZM23.2236 10.6401C25.7321 10.6401 27.7673 8.60492 27.7673 6.0964C27.7673 3.58788 25.7321 1.55266 23.2236 1.55266C20.715 1.55266 18.6798 3.58788 18.6798 6.0964C18.6798 8.60492 20.715 10.6401 23.2236 10.6401ZM25.4954 12.1547H25.3156C24.6577 12.3819 23.9619 12.5334 23.2236 12.5334C22.4852 12.5334 21.7894 12.3819 21.1316 12.1547H20.9517C19.9862 12.1547 19.0963 12.434 18.3154 12.8836C19.4702 14.1284 20.1944 15.7802 20.1944 17.6072V19.4247C20.1944 19.5288 20.1707 19.6282 20.166 19.7276H28.5246C29.7789 19.7276 30.7965 18.71 30.7965 17.4557C30.7965 14.526 28.4252 12.1547 25.4954 12.1547Z" fill="currentColor"/>
</svg>
