<svg width="178" height="110" viewBox="0 0 178 110" fill="none" xmlns="http://www.w3.org/2000/svg">
<path d="M63.2158 14.8829C63.2158 6.89064 69.6948 0.411621 77.6871 0.411621H100.323C108.315 0.411621 114.794 6.89064 114.794 14.8829H63.2158Z" fill="#05D976"/>
<rect x="125.933" y="40.2612" width="51.5781" height="17.9325" rx="8.96623" fill="#D9D9D9"/>
<rect x="0.5" y="40.2612" width="51.5781" height="17.9325" rx="8.96623" fill="#D9D9D9"/>
<rect x="26.2915" y="109.772" width="51.5781" height="24.2654" rx="12.1327" transform="rotate(-90 26.2915 109.772)" fill="#555555"/>
<rect x="127.46" y="109.772" width="51.5781" height="24.2654" rx="12.1327" transform="rotate(-90 127.46 109.772)" fill="#555555"/>
<rect x="26.2915" y="11.9897" width="125.435" height="56.5449" rx="28.2724" fill="white"/>
<rect x="40.3071" y="20.9663" width="97.4035" height="29.9696" rx="14.9848" fill="#555555"/>
<rect x="9.45068" y="40.2612" width="159.108" height="56.5449" rx="14" fill="white"/>
<circle cx="42.3785" cy="59.8478" r="10.6188" fill="#555555"/>
<circle cx="135.634" cy="59.8478" r="10.6188" fill="#555555"/>
<rect x="58.5249" y="68.5352" width="60.9651" height="18.9541" rx="9.47707" fill="#05D976"/>
<rect x="49.7197" y="23.0059" width="22.9198" height="9.1335" rx="4.56675" fill="#878383"/>
</svg>
