<svg width="150" height="110" viewBox="0 0 389 311" fill="none" xmlns="http://www.w3.org/2000/svg">
<circle cx="59.9131" cy="281.585" r="28.2081" fill="#555555"/>
<circle cx="267.361" cy="281.585" r="28.2081" fill="#555555"/>
<path d="M151.781 145.283C151.781 131.745 162.756 120.771 176.294 120.771H214.636C228.174 120.771 239.149 131.745 239.149 145.283H151.781Z" fill="#05D976"/>
<rect x="44.4346" y="182.981" width="87.3674" height="30.3755" rx="15.1878" fill="#D9D9D9"/>
<rect x="68.2324" y="145.282" width="285.037" height="95.7805" rx="47.8902" fill="#FCFCFC"/>
<rect x="86.4941" y="157.599" width="152.666" height="50.765" rx="25.3825" fill="#555555"/>
<rect x="253.76" y="157.599" width="81.7684" height="50.7679" rx="25.384" fill="#555555"/>
<path d="M0 223.575C0 206.786 13.6101 193.176 30.3989 193.176H357.775C374.564 193.176 388.174 206.786 388.174 223.575V258.557C388.174 275.346 374.564 288.956 357.775 288.956H30.3989C13.6101 288.956 0 275.346 0 258.557V223.575Z" fill="#FCFCFC"/>
<rect x="102.406" y="161.019" width="38.8235" height="14.3222" rx="7.16112" fill="#878383"/>
<circle cx="24.3756" cy="226.822" r="17.9869" fill="#555555"/>
<circle cx="148.584" cy="226.35" r="17.9869" fill="#555555"/>
<circle cx="210.935" cy="282.71" r="28.2081" fill="#555555"/>
<circle cx="210.741" cy="282.712" r="11.39" fill="#878383"/>
<circle cx="342.124" cy="282.71" r="28.2081" fill="#555555"/>
<rect x="28.5234" y="250.823" width="103.268" height="32.1061" rx="16.0531" fill="#05D976"/>
<rect x="203.364" y="184.926" width="54.3168" height="30.3755" rx="15.1878" fill="#D9D9D9"/>
<path d="M203.363 42.9938C200.353 42.9938 197.467 41.8018 195.339 39.68C193.21 37.5582 192.015 34.6804 192.015 31.6797C192.015 28.679 193.21 25.8011 195.339 23.6793C197.467 21.5575 200.353 20.3655 203.363 20.3655C206.373 20.3655 209.26 21.5575 211.388 23.6793C213.516 25.8011 214.712 28.679 214.712 31.6797C214.712 33.1655 214.418 34.6367 213.848 36.0094C213.278 37.3821 212.442 38.6294 211.388 39.68C210.334 40.7306 209.083 41.564 207.706 42.1326C206.329 42.7012 204.854 42.9938 203.363 42.9938ZM203.363 0C194.936 0 186.853 3.33767 180.894 9.27876C174.935 15.2198 171.587 23.2777 171.587 31.6797C171.587 55.4394 203.363 90.5133 203.363 90.5133C203.363 90.5133 235.14 55.4394 235.14 31.6797C235.14 23.2777 231.792 15.2198 225.833 9.27876C219.873 3.33767 211.791 0 203.363 0Z" fill="#08F283"/>
<rect x="37.8564" y="253.376" width="38.8235" height="14.3222" rx="7.16112" fill="#08F283"/>
<path d="M284.878 235.325H292.346C293.873 235.381 294.807 235.777 295.146 236.513C295.429 237.05 295.57 237.842 295.57 238.889V248.223C295.57 249.128 295.174 249.991 294.382 250.812C292.006 253.272 288.442 254.503 283.69 254.503C279.475 254.503 275.812 252.919 272.701 249.751C269.589 246.554 268.033 242.707 268.033 238.21C268.033 233.712 269.617 229.964 272.785 226.966C275.953 223.939 279.687 222.426 283.987 222.426C287.325 222.426 290.479 223.529 293.449 225.735C294.213 226.301 294.594 226.938 294.594 227.645C294.594 228.324 294.269 229.116 293.619 230.021C292.515 231.52 291.511 232.27 290.606 232.27C290.069 232.27 289.206 231.888 288.018 231.124C286.83 230.332 285.415 229.936 283.775 229.936C281.625 229.936 279.716 230.7 278.047 232.227C276.378 233.726 275.543 235.706 275.543 238.167C275.543 240.6 276.392 242.679 278.089 244.405C279.786 246.102 281.71 246.95 283.86 246.95C285.415 246.95 286.816 246.696 288.06 246.187V241.562H284.708C283.831 241.562 283.209 241.449 282.841 241.222C282.474 240.996 282.233 240.671 282.12 240.246C282.007 239.794 281.95 239.2 281.95 238.464C281.95 237.701 282.007 237.092 282.12 236.64C282.261 236.187 282.502 235.876 282.841 235.706C283.35 235.452 284.029 235.325 284.878 235.325Z" fill="#555555"/>
<circle cx="342.12" cy="282.712" r="11.39" fill="#878383"/>
</svg>
