<svg xmlns="http://www.w3.org/2000/svg" width="22" height="22" viewBox="0 0 48 48">
  <path fill="#EA4335" d="M24 9.5c3.34 0 6.4 1.26 8.7 3.3l6.45-6.45C35.35 2.73 30.03 0 24 0 14.68 0 6.86 5.68 3.05 13.91l7.78 6.06C12.8 13.3 17.97 9.5 24 9.5z"/>
  <path fill="#34A853" d="M46.14 24.55c0-1.87-.18-3.64-.5-5.37H24v10.18h12.65c-.55 2.86-2.18 5.27-4.69 6.93l7.33 5.71C42.46 38.62 46.14 32.2 46.14 24.55z"/>
  <path fill="#4A90E2" d="M3.05 13.91A23.975 23.975 0 000 24c0 3.59.82 6.97 2.3 10.01l8.19-6.47A14.43 14.43 0 019.57 24c0-2.24.55-4.37 1.48-6.3L3.05 13.91z"/>
  <path fill="#FBBC05" d="M24 48c6.48 0 11.92-2.14 15.89-5.84l-7.33-5.71c-2.04 1.36-4.66 2.16-7.71 2.16-5.97 0-11.04-4.03-12.85-9.47L3.05 34.09C6.86 42.32 14.68 48 24 48z"/>
</svg>
