<svg width="90" height="91" viewBox="0 0 90 91" fill="none" xmlns="http://www.w3.org/2000/svg">
<path d="M54.4004 28.015V29.015H55.4004H59.6762C62.7583 29.015 65.0898 31.3466 65.0898 34.4287V37.7045H24.332V34.4287C24.332 31.3466 26.6636 29.015 29.7457 29.015H34.0215H35.0215V28.015V25.8771C35.0215 25.463 35.1552 25.1956 35.3165 25.0343C35.4779 24.8729 35.7453 24.7393 36.1594 24.7393C36.5735 24.7393 36.8409 24.8729 37.0022 25.0343C37.1636 25.1956 37.2973 25.463 37.2973 25.8771V28.015V29.015H38.2973H51.1246H52.1246V28.015V25.8771C52.1246 25.463 52.2583 25.1956 52.4196 25.0343C52.581 24.8729 52.8484 24.7393 53.2625 24.7393C53.6766 24.7393 53.944 24.8729 54.1054 25.0343C54.2667 25.1956 54.4004 25.463 54.4004 25.8771V28.015ZM29.7457 65.4971C26.6636 65.4971 24.332 63.1655 24.332 60.0834V43.9803H65.0898V60.0834C65.0898 63.1655 62.7583 65.4971 59.6762 65.4971H29.7457Z" stroke="#838383" stroke-width="2"/>
<path d="M88.9922 45.1182C88.9922 69.4187 69.2927 89.1182 44.9922 89.1182C20.6917 89.1182 0.992188 69.4187 0.992188 45.1182C0.992188 20.8176 20.6917 1.11816 44.9922 1.11816C69.2927 1.11816 88.9922 20.8176 88.9922 45.1182Z" stroke="#838383" stroke-width="2"/>
</svg>
