<svg width="107" height="107" viewBox="0 0 107 107" fill="none" xmlns="http://www.w3.org/2000/svg">
<g opacity="0.85">
<circle cx="53.9961" cy="53.3613" r="53.0137" fill="#20271E"/>
<path d="M45.2832 54.2665C45.2832 51.5663 47.4721 49.3774 50.1723 49.3774H57.8196C60.5197 49.3774 62.7086 51.5663 62.7086 54.2665H45.2832Z" fill="#05D976"/>
<rect x="66.4727" y="62.8403" width="17.4254" height="6.0584" rx="3.0292" fill="#D9D9D9"/>
<rect x="24.0957" y="62.8403" width="17.4254" height="6.0584" rx="3.0292" fill="#D9D9D9"/>
<rect x="32.8096" y="86.3247" width="17.4254" height="8.19794" rx="4.09897" transform="rotate(-90 32.8096 86.3247)" fill="#555555"/>
<rect x="66.9854" y="86.3247" width="17.4254" height="8.19794" rx="4.09897" transform="rotate(-90 66.9854 86.3247)" fill="#555555"/>
<rect x="32.8096" y="53.2891" width="42.3776" height="19.1034" rx="9.55171" fill="white"/>
<rect x="37.543" y="56.3218" width="32.9073" height="10.1251" rx="5.06254" fill="#555555"/>
<path d="M27.1211 67.5702C27.1211 64.9579 29.2387 62.8403 31.8509 62.8403H76.145C78.7573 62.8403 80.8749 64.958 80.8749 67.5702V77.2139C80.8749 79.8261 78.7573 81.9437 76.145 81.9437H31.8509C29.2387 81.9437 27.1211 79.8261 27.1211 77.2139V67.5702Z" fill="white"/>
<circle cx="38.2454" cy="69.4573" r="3.5872" fill="#555555"/>
<circle cx="69.7464" cy="69.4573" r="3.5872" fill="#555555"/>
<rect x="43.7002" y="72.3926" width="20.5968" height="6.40357" rx="3.20178" fill="#05D976"/>
<rect x="40.7236" y="57.0107" width="7.74334" height="3.08571" rx="1.54285" fill="#878383"/>
<path d="M53.9975 23.5842C53.0363 23.5842 52.1144 23.2035 51.4347 22.5259C50.7551 21.8483 50.3732 20.9292 50.3732 19.971C50.3732 19.0127 50.7551 18.0937 51.4347 17.416C52.1144 16.7384 53.0363 16.3578 53.9975 16.3578C54.9587 16.3578 55.8805 16.7384 56.5602 17.416C57.2399 18.0937 57.6217 19.0127 57.6217 19.971C57.6217 20.4455 57.528 20.9153 57.3458 21.3537C57.1637 21.7921 56.8967 22.1904 56.5602 22.5259C56.2236 22.8614 55.8241 23.1275 55.3844 23.3091C54.9447 23.4907 54.4734 23.5842 53.9975 23.5842ZM53.9975 9.854C51.3061 9.854 48.7249 10.9199 46.8218 12.8172C44.9188 14.7145 43.8496 17.2878 43.8496 19.971C43.8496 27.5587 53.9975 38.7596 53.9975 38.7596C53.9975 38.7596 64.1453 27.5587 64.1453 19.971C64.1453 17.2878 63.0762 14.7145 61.1731 12.8172C59.27 10.9199 56.6888 9.854 53.9975 9.854Z" fill="#08F283"/>
</g>
</svg>
