<svg width="23" height="24" viewBox="0 0 23 24" fill="none" xmlns="http://www.w3.org/2000/svg">
<path d="M0.00585938 19.6904C0.00585938 21.6452 1.50076 23.1401 3.45564 23.1401H19.5546C21.5095 23.1401 23.0044 21.6452 23.0044 19.6904V10.4909H0.00585938V19.6904ZM19.5546 2.44146H17.2548V1.29153C17.2548 0.601572 16.7948 0.141602 16.1048 0.141602C15.4149 0.141602 14.9549 0.601572 14.9549 1.29153V2.44146H8.05535V1.29153C8.05535 0.601572 7.59538 0.141602 6.90542 0.141602C6.21546 0.141602 5.75549 0.601572 5.75549 1.29153V2.44146H3.45564C1.50076 2.44146 0.00585938 3.93636 0.00585938 5.89124V8.19109H23.0044V5.89124C23.0044 3.93636 21.5095 2.44146 19.5546 2.44146Z" fill="currentColor"/>
</svg>
