<svg width="40" height="26" viewBox="0 0 40 26" fill="none" xmlns="http://www.w3.org/2000/svg">
<path d="M14.209 4.02616C14.209 2.2424 15.655 0.796387 17.4388 0.796387H22.4907C24.2744 0.796387 25.7204 2.2424 25.7204 4.02616H14.209Z" fill="#05D976"/>
<rect x="28.207" y="9.68994" width="11.5115" height="4.00225" rx="2.00113" fill="#D9D9D9"/>
<rect x="0.211914" y="9.69043" width="11.5115" height="4.00225" rx="2.00113" fill="#D9D9D9"/>
<rect x="5.96875" y="25.2036" width="11.5115" height="5.41567" rx="2.70783" transform="rotate(-90 5.96875 25.2036)" fill="#555555"/>
<rect x="28.5469" y="25.2036" width="11.5115" height="5.41567" rx="2.70783" transform="rotate(-90 28.5469 25.2036)" fill="#555555"/>
<path d="M5.96875 9.69035C5.96875 6.20545 8.79383 3.38037 12.2787 3.38037H27.6539C31.1388 3.38037 33.9639 6.20544 33.9639 9.69035C33.9639 13.1753 31.1388 16.0003 27.6539 16.0003H12.2787C8.79383 16.0003 5.96875 13.1753 5.96875 9.69035Z" fill="white"/>
<rect x="9.09668" y="5.38379" width="21.739" height="6.68875" rx="3.34438" fill="#555555"/>
<path d="M2.20996 12.815C2.20996 11.0894 3.60889 9.69043 5.33455 9.69043H34.5958C36.3215 9.69043 37.7204 11.0894 37.7204 12.815V19.1858C37.7204 20.9115 36.3215 22.3104 34.5958 22.3104H5.33455C3.60888 22.3104 2.20996 20.9115 2.20996 19.1858V12.815Z" fill="white"/>
<circle cx="9.5594" cy="14.0614" r="2.36995" fill="#555555"/>
<circle cx="30.3709" cy="14.0614" r="2.36995" fill="#555555"/>
<rect x="13.1611" y="16" width="13.6065" height="4.23028" rx="2.11514" fill="#05D976"/>
<rect x="11.1963" y="5.83887" width="5.11535" height="2.03846" rx="1.01923" fill="#878383"/>
</svg>
