<svg width="14" height="14" viewBox="0 0 14 14" fill="none" xmlns="http://www.w3.org/2000/svg">
<path d="M0.459961 13.6616V10.6479L9.82034 1.3052C9.96217 1.1752 10.1189 1.07474 10.2905 1.00383C10.4621 0.932917 10.6422 0.897461 10.8308 0.897461C11.0195 0.897461 11.2027 0.932917 11.3804 1.00383C11.5582 1.07474 11.7118 1.18111 11.8413 1.32293L12.8164 2.3157C12.9582 2.44571 13.0617 2.59935 13.127 2.77663C13.1922 2.95391 13.2246 3.13119 13.2241 3.30847C13.2241 3.49757 13.1917 3.67792 13.127 3.84953C13.0622 4.02113 12.9587 4.17761 12.8164 4.31896L3.47372 13.6616H0.459961ZM10.8131 4.30124L11.8059 3.30847L10.8131 2.3157L9.82034 3.30847L10.8131 4.30124Z" fill="#D9D9D9"/>
</svg>
