<svg width="21" height="24" viewBox="0 0 21 24" fill="none" xmlns="http://www.w3.org/2000/svg">
<path d="M20.9434 19.5386V20.6362H0.943359V19.5386L3.16558 17.3432V10.7571C3.16558 7.35427 5.42114 4.35759 8.72114 3.39163V3.0733C8.72114 2.49105 8.95526 1.93265 9.37201 1.52094C9.78876 1.10923 10.354 0.87793 10.9434 0.87793C11.5327 0.87793 12.098 1.10923 12.5147 1.52094C12.9315 1.93265 13.1656 2.49105 13.1656 3.0733V3.39163C16.4656 4.35759 18.7211 7.35427 18.7211 10.7571V17.3432L20.9434 19.5386ZM13.1656 21.7339C13.1656 22.3162 12.9315 22.8746 12.5147 23.2863C12.098 23.698 11.5327 23.9293 10.9434 23.9293C10.354 23.9293 9.78876 23.698 9.37201 23.2863C8.95526 22.8746 8.72114 22.3162 8.72114 21.7339" fill="#9A9A9A"/>
</svg>
