<svg width="16" height="66" viewBox="0 0 16 66" fill="none" xmlns="http://www.w3.org/2000/svg">
<circle cx="8.10938" cy="6" r="6" fill="#80C576"/>
<circle cx="8.10938" cy="51.4619" r="6" fill="#02733E"/>
<rect x="6.67773" y="5.75439" width="3" height="37" rx="1.5" fill="url(#paint0_linear_426_38)"/>
<path d="M8.1096 53.9973C7.40972 53.9973 6.73851 53.7201 6.24362 53.2267C5.74874 52.7333 5.47071 52.0642 5.47071 51.3664C5.47071 50.6687 5.74874 49.9995 6.24362 49.5061C6.73851 49.0127 7.40972 48.7355 8.1096 48.7355C8.80948 48.7355 9.48069 49.0127 9.97558 49.5061C10.4705 49.9995 10.7485 50.6687 10.7485 51.3664C10.7485 51.7119 10.6802 52.054 10.5476 52.3732C10.415 52.6924 10.2206 52.9824 9.97558 53.2267C9.73054 53.471 9.43963 53.6648 9.11946 53.797C8.7993 53.9292 8.45615 53.9973 8.1096 53.9973ZM8.1096 44C6.14994 44 4.27055 44.7761 2.88486 46.1576C1.49917 47.539 0.720703 49.4127 0.720703 51.3664C0.720703 56.8912 8.1096 65.0469 8.1096 65.0469C8.1096 65.0469 15.4985 56.8912 15.4985 51.3664C15.4985 49.4127 14.72 47.539 13.3343 46.1576C11.9487 44.7761 10.0693 44 8.1096 44Z" fill="#86ED77"/>
<defs>
<linearGradient id="paint0_linear_426_38" x1="8.17773" y1="20.7544" x2="8.17773" y2="42.2544" gradientUnits="userSpaceOnUse">
<stop stop-color="#80C576"/>
<stop offset="1" stop-color="#3E5F39" stop-opacity="0"/>
</linearGradient>
</defs>
</svg>
