<svg width="17" height="20" viewBox="0 0 17 20" fill="none" xmlns="http://www.w3.org/2000/svg">
<path d="M2.34961 4.67924C2.34961 4.24586 2.70093 3.89453 3.13432 3.89453H4.43399C4.86737 3.89453 5.21869 4.24586 5.21869 4.67924V19.017C5.21869 19.4504 4.86737 19.8017 4.43399 19.8017H3.13432C2.70093 19.8017 2.34961 19.4504 2.34961 19.017V4.67924Z" fill="#80C576"/>
<path d="M3.1024 0.692159C3.40443 0.169021 4.15952 0.16902 4.46155 0.692157L6.89515 4.90727C7.19718 5.43041 6.81964 6.08433 6.21557 6.08433H1.34838C0.744311 6.08433 0.366767 5.43041 0.668801 4.90727L3.1024 0.692159Z" fill="#80C576"/>
<path d="M12.3477 15.4223C12.3477 15.8557 12.699 16.207 13.1324 16.207H14.432C14.8654 16.207 15.2167 15.8557 15.2167 15.4223V1.08457C15.2167 0.651187 14.8654 0.299861 14.432 0.299861H13.1324C12.699 0.299861 12.3477 0.651187 12.3477 1.08457V15.4223Z" fill="#80C576"/>
<path d="M13.1004 19.4094C13.4025 19.9325 14.1576 19.9325 14.4596 19.4094L16.8932 15.1943C17.1952 14.6712 16.8177 14.0172 16.2136 14.0172H11.3464C10.7424 14.0172 10.3648 14.6712 10.6668 15.1943L13.1004 19.4094Z" fill="#80C576"/>
</svg>
