<svg width="51" height="50" viewBox="0 0 51 50" fill="none" xmlns="http://www.w3.org/2000/svg">
<circle cx="25.0566" cy="25" r="25" fill="#141913"/>
<path d="M14.6592 19.9683C14.6592 18.6267 15.7468 17.5391 17.0884 17.5391H36.6503C37.9919 17.5391 39.0795 18.6267 39.0795 19.9683V27.1611C39.0795 28.5027 37.9919 29.5903 36.6503 29.5903H17.0884C15.7468 29.5903 14.6592 28.5027 14.6592 27.1611V19.9683Z" fill="#465443"/>
<path fill-rule="evenodd" clip-rule="evenodd" d="M13.4624 20.4111C12.1208 20.4111 11.0332 21.4987 11.0332 22.8404V30.0331C11.0332 31.3748 12.1208 32.4624 13.4624 32.4624H33.0243C34.366 32.4624 35.4536 31.3748 35.4536 30.0331V22.8404C35.4536 21.4987 34.366 20.4111 33.0243 20.4111H13.4624ZM23.2393 28.5721C24.4186 28.5721 25.3746 27.6161 25.3746 26.4368C25.3746 25.2574 24.4186 24.3014 23.2393 24.3014C22.06 24.3014 21.1039 25.2574 21.1039 26.4368C21.1039 27.6161 22.06 28.5721 23.2393 28.5721Z" fill="#05D976"/>
</svg>
