<svg width="11" height="40" viewBox="0 0 11 40" fill="none" xmlns="http://www.w3.org/2000/svg">
<circle cx="5.4638" cy="4.61224" r="4.25384" fill="#80C576"/>
<circle cx="5.4638" cy="29.9277" r="4.25384" fill="#02733E"/>
<rect x="4.47949" y="4.6123" width="2.12692" height="19.8512" rx="1.06346" fill="url(#paint0_linear_426_258)"/>
<path d="M5.46411 31.5512C4.96792 31.5512 4.49205 31.3547 4.14119 31.0049C3.79032 30.6551 3.59321 30.1806 3.59321 29.686C3.59321 29.1913 3.79032 28.7169 4.14119 28.3671C4.49205 28.0173 4.96792 27.8208 5.46411 27.8208C5.96031 27.8208 6.43618 28.0173 6.78704 28.3671C7.1379 28.7169 7.33502 29.1913 7.33502 29.686C7.33502 29.9309 7.28662 30.1734 7.1926 30.3997C7.09858 30.626 6.96077 30.8317 6.78704 31.0049C6.61331 31.1781 6.40707 31.3155 6.18008 31.4092C5.95309 31.5029 5.7098 31.5512 5.46411 31.5512ZM5.46411 24.4634C4.07477 24.4634 2.74233 25.0136 1.75992 25.993C0.777501 26.9725 0.225586 28.3008 0.225586 29.686C0.225586 33.6029 5.46411 39.385 5.46411 39.385C5.46411 39.385 10.7026 33.6029 10.7026 29.686C10.7026 28.3008 10.1507 26.9725 9.16831 25.993C8.1859 25.0136 6.85346 24.4634 5.46411 24.4634Z" fill="#86ED77"/>
<defs>
<linearGradient id="paint0_linear_426_258" x1="5.54295" y1="12.6601" x2="5.54295" y2="24.1953" gradientUnits="userSpaceOnUse">
<stop stop-color="#80C576"/>
<stop offset="1" stop-color="#3E5F39" stop-opacity="0"/>
</linearGradient>
</defs>
</svg>
